<svg width="193" height="52" viewBox="0 0 193 52" fill="none" xmlns="http://www.w3.org/2000/svg">
<path d="M30.176 5.568H17.792V51H12.392V5.568H0.00800003V0.599997H30.176V5.568ZM27.2043 27.96H41.3883V32.928H27.2043V27.96ZM74.6838 5.568H62.2998V51H56.8998V5.568H44.5158V0.599997H74.6838V5.568ZM73.8418 15H77.5138L78.4498 18.816H78.6658C79.3378 17.424 80.2018 16.344 81.2578 15.576C82.3618 14.76 83.6818 14.352 85.2178 14.352C86.3218 14.352 87.5698 14.568 88.9618 15L87.9538 20.256C86.7058 19.824 85.6018 19.608 84.6418 19.608C83.1058 19.608 81.8578 20.064 80.8978 20.976C79.9378 21.84 79.3138 23.016 79.0258 24.504V51H73.8418V15ZM93.2396 17.16C94.6316 16.296 96.3116 15.624 98.2796 15.144C100.296 14.664 102.408 14.424 104.616 14.424C106.632 14.424 108.24 14.736 109.44 15.36C110.688 15.936 111.648 16.752 112.32 17.808C113.04 18.816 113.496 19.992 113.688 21.336C113.928 22.632 114.048 24 114.048 25.44C114.048 28.32 113.976 31.128 113.832 33.864C113.736 36.6 113.688 39.192 113.688 41.64C113.688 43.464 113.736 45.168 113.832 46.752C113.976 48.288 114.216 49.752 114.552 51.144H110.592L109.368 46.896H109.08C108.36 48.144 107.304 49.224 105.912 50.136C104.52 51.048 102.648 51.504 100.296 51.504C97.7036 51.504 95.5676 50.616 93.8876 48.84C92.2556 47.016 91.4396 44.52 91.4396 41.352C91.4396 39.288 91.7756 37.56 92.4476 36.168C93.1676 34.776 94.1516 33.648 95.3996 32.784C96.6956 31.92 98.2076 31.32 99.9356 30.984C101.712 30.6 103.68 30.408 105.84 30.408C106.32 30.408 106.8 30.408 107.28 30.408C107.76 30.408 108.264 30.432 108.792 30.48C108.936 28.992 109.008 27.672 109.008 26.52C109.008 23.784 108.6 21.864 107.784 20.76C106.968 19.656 105.48 19.104 103.32 19.104C101.976 19.104 100.512 19.32 98.9276 19.752C97.3436 20.136 96.0236 20.64 94.9676 21.264L93.2396 17.16ZM108.864 34.584C108.384 34.536 107.904 34.512 107.424 34.512C106.944 34.464 106.464 34.44 105.984 34.44C104.832 34.44 103.704 34.536 102.6 34.728C101.496 34.92 100.512 35.256 99.6476 35.736C98.7836 36.216 98.0876 36.864 97.5596 37.68C97.0796 38.496 96.8396 39.528 96.8396 40.776C96.8396 42.696 97.2956 44.184 98.2076 45.24C99.1676 46.296 100.392 46.824 101.88 46.824C103.896 46.824 105.456 46.344 106.56 45.384C107.664 44.424 108.432 43.368 108.864 42.216V34.584ZM131.14 36.096L132.58 43.224H132.724L134.02 35.952L140.356 15H145.828L133.516 51.792H130.996L118.468 15H124.372L131.14 36.096ZM171.87 48.552C170.718 49.608 169.254 50.424 167.478 51C165.702 51.576 163.83 51.864 161.862 51.864C159.606 51.864 157.638 51.432 155.958 50.568C154.326 49.656 152.958 48.384 151.854 46.752C150.798 45.072 150.006 43.08 149.478 40.776C148.998 38.472 148.758 35.88 148.758 33C148.758 26.856 149.886 22.176 152.142 18.96C154.398 15.744 157.59 14.136 161.718 14.136C163.062 14.136 164.382 14.304 165.678 14.64C167.022 14.976 168.222 15.648 169.278 16.656C170.334 17.664 171.174 19.08 171.798 20.904C172.47 22.728 172.806 25.104 172.806 28.032C172.806 28.848 172.758 29.736 172.662 30.696C172.614 31.608 172.542 32.568 172.446 33.576H154.158C154.158 35.64 154.326 37.512 154.662 39.192C154.998 40.872 155.526 42.312 156.246 43.512C156.966 44.664 157.878 45.576 158.982 46.248C160.134 46.872 161.55 47.184 163.23 47.184C164.526 47.184 165.798 46.944 167.046 46.464C168.342 45.984 169.326 45.408 169.998 44.736L171.87 48.552ZM167.838 29.256C167.934 25.656 167.43 23.016 166.326 21.336C165.222 19.656 163.71 18.816 161.79 18.816C159.582 18.816 157.83 19.656 156.534 21.336C155.238 23.016 154.47 25.656 154.23 29.256H167.838ZM185.628 42.432C185.628 44.112 185.844 45.312 186.276 46.032C186.756 46.752 187.404 47.112 188.22 47.112C189.228 47.112 190.404 46.848 191.748 46.32L192.252 50.496C191.628 50.88 190.74 51.192 189.588 51.432C188.484 51.672 187.476 51.792 186.564 51.792C184.74 51.792 183.252 51.24 182.1 50.136C180.996 48.984 180.444 46.992 180.444 44.16V0.599997H185.628V42.432Z" fill="#398495"/>
</svg>
