<svg width="41" height="41" viewBox="0 0 41 41" fill="none" xmlns="http://www.w3.org/2000/svg">
<path d="M33.1562 17.6875H21.9062C21.1603 17.6875 20.445 17.9838 19.9175 18.5112C19.3901 19.0387 19.0938 19.7541 19.0938 20.5V28.9375H3.625V12.9062L20.5 3.82185L38.1203 13.3L39.4422 10.825L21.1609 0.981223C20.9575 0.872885 20.7305 0.816223 20.5 0.816223C20.2695 0.816223 20.0425 0.872885 19.8391 0.981223L1.55781 10.825C1.33326 10.9445 1.14536 11.1228 1.01411 11.3407C0.882855 11.5586 0.813179 11.8081 0.8125 12.0625V40.1875H3.625V31.75H37.375V40.1875H40.1875V24.7187C40.1875 22.8539 39.4467 21.0655 38.1281 19.7469C36.8095 18.4283 35.0211 17.6875 33.1562 17.6875ZM21.9062 28.9375V20.5H33.1562C34.2751 20.5 35.3482 20.9444 36.1394 21.7356C36.9305 22.5268 37.375 23.5998 37.375 24.7187V28.9375H21.9062Z" fill="#00B8E0"/>
</svg>
