<svg width="33" height="31" viewBox="0 0 33 31" fill="none" xmlns="http://www.w3.org/2000/svg">
<path d="M32.2891 27.2578H3.39844V1.05469C3.39844 0.869922 3.24727 0.71875 3.0625 0.71875H0.710938C0.526172 0.71875 0.375 0.869922 0.375 1.05469V29.9453C0.375 30.1301 0.526172 30.2812 0.710938 30.2812H32.2891C32.4738 30.2812 32.625 30.1301 32.625 29.9453V27.5938C32.625 27.409 32.4738 27.2578 32.2891 27.2578ZM7.09375 23.8984H9.44531C9.63008 23.8984 9.78125 23.7473 9.78125 23.5625V17.5156C9.78125 17.3309 9.63008 17.1797 9.44531 17.1797H7.09375C6.90898 17.1797 6.75781 17.3309 6.75781 17.5156V23.5625C6.75781 23.7473 6.90898 23.8984 7.09375 23.8984ZM13.4766 23.8984H15.8281C16.0129 23.8984 16.1641 23.7473 16.1641 23.5625V10.125C16.1641 9.94023 16.0129 9.78906 15.8281 9.78906H13.4766C13.2918 9.78906 13.1406 9.94023 13.1406 10.125V23.5625C13.1406 23.7473 13.2918 23.8984 13.4766 23.8984ZM19.8594 23.8984H22.2109C22.3957 23.8984 22.5469 23.7473 22.5469 23.5625V13.4004C22.5469 13.2156 22.3957 13.0645 22.2109 13.0645H19.8594C19.6746 13.0645 19.5234 13.2156 19.5234 13.4004V23.5625C19.5234 23.7473 19.6746 23.8984 19.8594 23.8984ZM26.2422 23.8984H28.5938C28.7785 23.8984 28.9297 23.7473 28.9297 23.5625V6.76562C28.9297 6.58086 28.7785 6.42969 28.5938 6.42969H26.2422C26.0574 6.42969 25.9062 6.58086 25.9062 6.76562V23.5625C25.9062 23.7473 26.0574 23.8984 26.2422 23.8984Z" fill="#005F15"/>
</svg>
