<svg width="215" height="300" viewBox="0 0 215 300" fill="none" xmlns="http://www.w3.org/2000/svg">
<path d="M86 140V264.718C86 271.301 88.6152 277.615 93.2704 282.27V282.27C102.432 291.432 117.099 292.006 126.949 283.589L127.853 282.817C133.658 277.856 137 270.603 137 262.968V180.305C137 158.045 155.045 140 177.305 140H186.751C191.393 140 195.844 138.156 199.126 134.874V134.874C205.96 128.04 205.96 116.96 199.126 110.126V110.126C195.844 106.844 191.393 105 186.751 105H92C58.3106 105 31 77.6894 31 44V44M31 44H44.5L31 21L18 44H31Z" stroke="#398596" stroke-width="20"/>
<path d="M86 140V264.718C86 271.301 88.6152 277.615 93.2704 282.27V282.27C102.432 291.432 117.099 292.006 126.949 283.589L127.853 282.817C133.658 277.856 137 270.603 137 262.968V180.305C137 158.045 155.045 140 177.305 140H186.751C191.393 140 195.844 138.156 199.126 134.874V134.874C205.96 128.04 205.96 116.96 199.126 110.126V110.126C195.844 106.844 191.393 105 186.751 105H92C58.3106 105 31 77.6894 31 44V44M31 44H44.5L31 21L18 44H31Z" stroke="url(#paint0_linear_5_39)" stroke-opacity="0.5" stroke-width="20"/>
<defs>
<linearGradient id="paint0_linear_5_39" x1="47" y1="60" x2="114.75" y2="298.5" gradientUnits="userSpaceOnUse">
<stop stop-color="#3DE04D"/>
<stop offset="1" stop-opacity="0"/>
</linearGradient>
</defs>
</svg>
