<svg width="54" height="36" viewBox="0 0 54 36" fill="none" xmlns="http://www.w3.org/2000/svg">
<g filter="url(#filter0_d_2_49)">
<path d="M48.3571 10.9036C48.7929 10.9036 49.2107 10.76 49.5188 10.5044C49.8269 10.2488 50 9.90215 50 9.54068V2.72591C50 2.00295 49.6538 1.30961 49.0376 0.7984C48.4214 0.287193 47.5857 0 46.7143 0H7.28571C6.41429 0 5.57855 0.287193 4.96236 0.7984C4.34617 1.30961 4 2.00295 4 2.72591V9.54068C4 9.90215 4.17309 10.2488 4.48118 10.5044C4.78928 10.76 5.20714 10.9036 5.64286 10.9036C6.51428 10.9036 7.35002 11.1908 7.96621 11.702C8.5824 12.2132 8.92857 12.9066 8.92857 13.6295C8.92857 14.3525 8.5824 15.0458 7.96621 15.557C7.35002 16.0682 6.51428 16.3554 5.64286 16.3554C5.20714 16.3554 4.78928 16.499 4.48118 16.7546C4.17309 17.0102 4 17.3569 4 17.7184V24.5332C4 25.2561 4.34617 25.9495 4.96236 26.4607C5.57855 26.9719 6.41429 27.2591 7.28571 27.2591H46.7143C47.5857 27.2591 48.4214 26.9719 49.0376 26.4607C49.6538 25.9495 50 25.2561 50 24.5332V17.7184C50 17.3569 49.8269 17.0102 49.5188 16.7546C49.2107 16.499 48.7929 16.3554 48.3571 16.3554C47.4857 16.3554 46.65 16.0682 46.0338 15.557C45.4176 15.0458 45.0714 14.3525 45.0714 13.6295C45.0714 12.9066 45.4176 12.2132 46.0338 11.702C46.65 11.1908 47.4857 10.9036 48.3571 10.9036V10.9036ZM46.7143 18.9042V24.5332H35.2143V20.4443H31.9286V24.5332H7.28571V18.9042C8.69199 18.5992 9.93673 17.9161 10.8251 16.9617C11.7135 16.0073 12.1954 14.8354 12.1954 13.6295C12.1954 12.4237 11.7135 11.2518 10.8251 10.2974C9.93673 9.34297 8.69199 8.65984 7.28571 8.35491V2.72591H31.9286V6.81477H35.2143V2.72591H46.7143V8.35491C45.308 8.65984 44.0633 9.34297 43.1749 10.2974C42.2865 11.2518 41.8046 12.4237 41.8046 13.6295C41.8046 14.8354 42.2865 16.0073 43.1749 16.9617C44.0633 17.9161 45.308 18.5992 46.7143 18.9042V18.9042Z" fill="#32DF8F"/>
</g>
<defs>
<filter id="filter0_d_2_49" x="0" y="0" width="54" height="35.2591" filterUnits="userSpaceOnUse" color-interpolation-filters="sRGB">
<feFlood flood-opacity="0" result="BackgroundImageFix"/>
<feColorMatrix in="SourceAlpha" type="matrix" values="0 0 0 0 0 0 0 0 0 0 0 0 0 0 0 0 0 0 127 0" result="hardAlpha"/>
<feOffset dy="4"/>
<feGaussianBlur stdDeviation="2"/>
<feComposite in2="hardAlpha" operator="out"/>
<feColorMatrix type="matrix" values="0 0 0 0 0 0 0 0 0 0 0 0 0 0 0 0 0 0 0.25 0"/>
<feBlend mode="normal" in2="BackgroundImageFix" result="effect1_dropShadow_2_49"/>
<feBlend mode="normal" in="SourceGraphic" in2="effect1_dropShadow_2_49" result="shape"/>
</filter>
</defs>
</svg>
